<mxfile host="app.diagrams.net" modified="2021-12-06T08:33:53.110Z" agent="5.0 (Windows NT 10.0; Win64; x64) AppleWebKit/537.36 (KHTML, like Gecko) Chrome/96.0.4664.45 Safari/537.36" etag="75G9AwRwrwfuqXQZCcah" version="15.8.3" type="github">
  <diagram id="nRcR3ROQWwKyim4e7xQK" name="Page-1">
    <mxGraphModel dx="973" dy="453" grid="1" gridSize="10" guides="1" tooltips="1" connect="1" arrows="1" fold="1" page="1" pageScale="1" pageWidth="1200" pageHeight="1920" math="0" shadow="0">
      <root>
        <mxCell id="0" />
        <mxCell id="1" parent="0" />
        <mxCell id="d4iCRV9yAz6YBynpbSwq-1" value="用户" style="swimlane;fontStyle=1;align=center;verticalAlign=top;childLayout=stackLayout;horizontal=1;startSize=26;horizontalStack=0;resizeParent=1;resizeParentMax=0;resizeLast=0;collapsible=1;marginBottom=0;" vertex="1" parent="1">
          <mxGeometry x="1330" y="500" width="150" height="150" as="geometry" />
        </mxCell>
        <mxCell id="d4iCRV9yAz6YBynpbSwq-2" value="+姓名&#xa;+账号信息&#xa;+水滴总量" style="text;strokeColor=none;fillColor=none;align=left;verticalAlign=top;spacingLeft=4;spacingRight=4;overflow=hidden;rotatable=0;points=[[0,0.5],[1,0.5]];portConstraint=eastwest;" vertex="1" parent="d4iCRV9yAz6YBynpbSwq-1">
          <mxGeometry y="26" width="150" height="54" as="geometry" />
        </mxCell>
        <mxCell id="d4iCRV9yAz6YBynpbSwq-3" value="" style="line;strokeWidth=1;fillColor=none;align=left;verticalAlign=middle;spacingTop=-1;spacingLeft=3;spacingRight=3;rotatable=0;labelPosition=right;points=[];portConstraint=eastwest;" vertex="1" parent="d4iCRV9yAz6YBynpbSwq-1">
          <mxGeometry y="80" width="150" height="8" as="geometry" />
        </mxCell>
        <mxCell id="d4iCRV9yAz6YBynpbSwq-4" value="+ 操作()&#xa;+ 选择账户()" style="text;strokeColor=none;fillColor=none;align=left;verticalAlign=top;spacingLeft=4;spacingRight=4;overflow=hidden;rotatable=0;points=[[0,0.5],[1,0.5]];portConstraint=eastwest;" vertex="1" parent="d4iCRV9yAz6YBynpbSwq-1">
          <mxGeometry y="88" width="150" height="62" as="geometry" />
        </mxCell>
        <mxCell id="d4iCRV9yAz6YBynpbSwq-5" value="果树" style="swimlane;fontStyle=1;align=center;verticalAlign=top;childLayout=stackLayout;horizontal=1;startSize=26;horizontalStack=0;resizeParent=1;resizeParentMax=0;resizeLast=0;collapsible=1;marginBottom=0;" vertex="1" parent="1">
          <mxGeometry x="190" y="362" width="160" height="86" as="geometry" />
        </mxCell>
        <mxCell id="d4iCRV9yAz6YBynpbSwq-6" value="+ 成长值" style="text;strokeColor=none;fillColor=none;align=left;verticalAlign=top;spacingLeft=4;spacingRight=4;overflow=hidden;rotatable=0;points=[[0,0.5],[1,0.5]];portConstraint=eastwest;" vertex="1" parent="d4iCRV9yAz6YBynpbSwq-5">
          <mxGeometry y="26" width="160" height="26" as="geometry" />
        </mxCell>
        <mxCell id="d4iCRV9yAz6YBynpbSwq-7" value="" style="line;strokeWidth=1;fillColor=none;align=left;verticalAlign=middle;spacingTop=-1;spacingLeft=3;spacingRight=3;rotatable=0;labelPosition=right;points=[];portConstraint=eastwest;" vertex="1" parent="d4iCRV9yAz6YBynpbSwq-5">
          <mxGeometry y="52" width="160" height="8" as="geometry" />
        </mxCell>
        <mxCell id="d4iCRV9yAz6YBynpbSwq-8" value="+ 接受水滴()" style="text;strokeColor=none;fillColor=none;align=left;verticalAlign=top;spacingLeft=4;spacingRight=4;overflow=hidden;rotatable=0;points=[[0,0.5],[1,0.5]];portConstraint=eastwest;" vertex="1" parent="d4iCRV9yAz6YBynpbSwq-5">
          <mxGeometry y="60" width="160" height="26" as="geometry" />
        </mxCell>
        <mxCell id="d4iCRV9yAz6YBynpbSwq-13" value="多多果园系统" style="swimlane;fontStyle=1;align=center;verticalAlign=top;childLayout=stackLayout;horizontal=1;startSize=26;horizontalStack=0;resizeParent=1;resizeParentMax=0;resizeLast=0;collapsible=1;marginBottom=0;" vertex="1" parent="1">
          <mxGeometry x="1020" y="270" width="160" height="180" as="geometry" />
        </mxCell>
        <mxCell id="d4iCRV9yAz6YBynpbSwq-14" value="+ 终端信息&#xa;+ 时间戳&#xa;+ 本地日志" style="text;strokeColor=none;fillColor=none;align=left;verticalAlign=top;spacingLeft=4;spacingRight=4;overflow=hidden;rotatable=0;points=[[0,0.5],[1,0.5]];portConstraint=eastwest;" vertex="1" parent="d4iCRV9yAz6YBynpbSwq-13">
          <mxGeometry y="26" width="160" height="54" as="geometry" />
        </mxCell>
        <mxCell id="d4iCRV9yAz6YBynpbSwq-15" value="" style="line;strokeWidth=1;fillColor=none;align=left;verticalAlign=middle;spacingTop=-1;spacingLeft=3;spacingRight=3;rotatable=0;labelPosition=right;points=[];portConstraint=eastwest;" vertex="1" parent="d4iCRV9yAz6YBynpbSwq-13">
          <mxGeometry y="80" width="160" height="8" as="geometry" />
        </mxCell>
        <mxCell id="d4iCRV9yAz6YBynpbSwq-16" value="+ 控制执行对应操作()&#xa;+ 驱动硬件()&#xa;+ 通信发送()&#xa;+ 通信接受()&#xa;+ 记录日志()" style="text;strokeColor=none;fillColor=none;align=left;verticalAlign=top;spacingLeft=4;spacingRight=4;overflow=hidden;rotatable=0;points=[[0,0.5],[1,0.5]];portConstraint=eastwest;" vertex="1" parent="d4iCRV9yAz6YBynpbSwq-13">
          <mxGeometry y="88" width="160" height="92" as="geometry" />
        </mxCell>
        <mxCell id="d4iCRV9yAz6YBynpbSwq-17" value="" style="endArrow=classic;html=1;rounded=0;entryX=0.916;entryY=1.027;entryDx=0;entryDy=0;entryPerimeter=0;exitX=0.009;exitY=0.771;exitDx=0;exitDy=0;exitPerimeter=0;" edge="1" parent="1" source="d4iCRV9yAz6YBynpbSwq-2" target="d4iCRV9yAz6YBynpbSwq-16">
          <mxGeometry width="50" height="50" relative="1" as="geometry">
            <mxPoint x="1190" y="600" as="sourcePoint" />
            <mxPoint x="1240" y="550" as="targetPoint" />
          </mxGeometry>
        </mxCell>
        <mxCell id="d4iCRV9yAz6YBynpbSwq-18" value="种树操作" style="swimlane;fontStyle=0;childLayout=stackLayout;horizontal=1;startSize=26;fillColor=none;horizontalStack=0;resizeParent=1;resizeParentMax=0;resizeLast=0;collapsible=1;marginBottom=0;" vertex="1" parent="1">
          <mxGeometry x="490" y="350" width="140" height="110" as="geometry" />
        </mxCell>
        <mxCell id="d4iCRV9yAz6YBynpbSwq-21" value="+ 浇水()&#xa;+ 选择水果()&#xa;+ 虚拟宠物&#xa;+ 虚拟宝箱()&#xa;+ 做任务()" style="text;strokeColor=none;fillColor=none;align=left;verticalAlign=top;spacingLeft=4;spacingRight=4;overflow=hidden;rotatable=0;points=[[0,0.5],[1,0.5]];portConstraint=eastwest;" vertex="1" parent="d4iCRV9yAz6YBynpbSwq-18">
          <mxGeometry y="26" width="140" height="84" as="geometry" />
        </mxCell>
        <mxCell id="d4iCRV9yAz6YBynpbSwq-26" value="选择水果" style="swimlane;fontStyle=1;align=center;verticalAlign=top;childLayout=stackLayout;horizontal=1;startSize=26;horizontalStack=0;resizeParent=1;resizeParentMax=0;resizeLast=0;collapsible=1;marginBottom=0;" vertex="1" parent="1">
          <mxGeometry x="740" y="140" width="160" height="86" as="geometry" />
        </mxCell>
        <mxCell id="d4iCRV9yAz6YBynpbSwq-27" value="+ 水果名称" style="text;strokeColor=none;fillColor=none;align=left;verticalAlign=top;spacingLeft=4;spacingRight=4;overflow=hidden;rotatable=0;points=[[0,0.5],[1,0.5]];portConstraint=eastwest;" vertex="1" parent="d4iCRV9yAz6YBynpbSwq-26">
          <mxGeometry y="26" width="160" height="26" as="geometry" />
        </mxCell>
        <mxCell id="d4iCRV9yAz6YBynpbSwq-28" value="" style="line;strokeWidth=1;fillColor=none;align=left;verticalAlign=middle;spacingTop=-1;spacingLeft=3;spacingRight=3;rotatable=0;labelPosition=right;points=[];portConstraint=eastwest;" vertex="1" parent="d4iCRV9yAz6YBynpbSwq-26">
          <mxGeometry y="52" width="160" height="8" as="geometry" />
        </mxCell>
        <mxCell id="d4iCRV9yAz6YBynpbSwq-29" value="+ 选择水果种类()" style="text;strokeColor=none;fillColor=none;align=left;verticalAlign=top;spacingLeft=4;spacingRight=4;overflow=hidden;rotatable=0;points=[[0,0.5],[1,0.5]];portConstraint=eastwest;" vertex="1" parent="d4iCRV9yAz6YBynpbSwq-26">
          <mxGeometry y="60" width="160" height="26" as="geometry" />
        </mxCell>
        <mxCell id="d4iCRV9yAz6YBynpbSwq-30" value="虚拟宠物" style="swimlane;fontStyle=1;align=center;verticalAlign=top;childLayout=stackLayout;horizontal=1;startSize=26;horizontalStack=0;resizeParent=1;resizeParentMax=0;resizeLast=0;collapsible=1;marginBottom=0;" vertex="1" parent="1">
          <mxGeometry x="740" y="305" width="160" height="110" as="geometry" />
        </mxCell>
        <mxCell id="d4iCRV9yAz6YBynpbSwq-31" value="+ 宠物名称" style="text;strokeColor=none;fillColor=none;align=left;verticalAlign=top;spacingLeft=4;spacingRight=4;overflow=hidden;rotatable=0;points=[[0,0.5],[1,0.5]];portConstraint=eastwest;" vertex="1" parent="d4iCRV9yAz6YBynpbSwq-30">
          <mxGeometry y="26" width="160" height="26" as="geometry" />
        </mxCell>
        <mxCell id="d4iCRV9yAz6YBynpbSwq-32" value="" style="line;strokeWidth=1;fillColor=none;align=left;verticalAlign=middle;spacingTop=-1;spacingLeft=3;spacingRight=3;rotatable=0;labelPosition=right;points=[];portConstraint=eastwest;" vertex="1" parent="d4iCRV9yAz6YBynpbSwq-30">
          <mxGeometry y="52" width="160" height="8" as="geometry" />
        </mxCell>
        <mxCell id="d4iCRV9yAz6YBynpbSwq-33" value="+ 签到领宠物()&#xa;+ 分享得水滴()" style="text;strokeColor=none;fillColor=none;align=left;verticalAlign=top;spacingLeft=4;spacingRight=4;overflow=hidden;rotatable=0;points=[[0,0.5],[1,0.5]];portConstraint=eastwest;" vertex="1" parent="d4iCRV9yAz6YBynpbSwq-30">
          <mxGeometry y="60" width="160" height="50" as="geometry" />
        </mxCell>
        <mxCell id="d4iCRV9yAz6YBynpbSwq-34" value="虚拟宝箱" style="swimlane;fontStyle=1;align=center;verticalAlign=top;childLayout=stackLayout;horizontal=1;startSize=26;horizontalStack=0;resizeParent=1;resizeParentMax=0;resizeLast=0;collapsible=1;marginBottom=0;" vertex="1" parent="1">
          <mxGeometry x="740" y="490" width="160" height="86" as="geometry" />
        </mxCell>
        <mxCell id="d4iCRV9yAz6YBynpbSwq-35" value="+ 宝箱信息" style="text;strokeColor=none;fillColor=none;align=left;verticalAlign=top;spacingLeft=4;spacingRight=4;overflow=hidden;rotatable=0;points=[[0,0.5],[1,0.5]];portConstraint=eastwest;" vertex="1" parent="d4iCRV9yAz6YBynpbSwq-34">
          <mxGeometry y="26" width="160" height="26" as="geometry" />
        </mxCell>
        <mxCell id="d4iCRV9yAz6YBynpbSwq-36" value="" style="line;strokeWidth=1;fillColor=none;align=left;verticalAlign=middle;spacingTop=-1;spacingLeft=3;spacingRight=3;rotatable=0;labelPosition=right;points=[];portConstraint=eastwest;" vertex="1" parent="d4iCRV9yAz6YBynpbSwq-34">
          <mxGeometry y="52" width="160" height="8" as="geometry" />
        </mxCell>
        <mxCell id="d4iCRV9yAz6YBynpbSwq-37" value="+ 浇水得宝箱" style="text;strokeColor=none;fillColor=none;align=left;verticalAlign=top;spacingLeft=4;spacingRight=4;overflow=hidden;rotatable=0;points=[[0,0.5],[1,0.5]];portConstraint=eastwest;" vertex="1" parent="d4iCRV9yAz6YBynpbSwq-34">
          <mxGeometry y="60" width="160" height="26" as="geometry" />
        </mxCell>
        <mxCell id="d4iCRV9yAz6YBynpbSwq-38" value="做任务" style="swimlane;fontStyle=1;align=center;verticalAlign=top;childLayout=stackLayout;horizontal=1;startSize=26;horizontalStack=0;resizeParent=1;resizeParentMax=0;resizeLast=0;collapsible=1;marginBottom=0;" vertex="1" parent="1">
          <mxGeometry x="740" y="660" width="160" height="170" as="geometry" />
        </mxCell>
        <mxCell id="d4iCRV9yAz6YBynpbSwq-39" value="+ 水滴增加量" style="text;strokeColor=none;fillColor=none;align=left;verticalAlign=top;spacingLeft=4;spacingRight=4;overflow=hidden;rotatable=0;points=[[0,0.5],[1,0.5]];portConstraint=eastwest;" vertex="1" parent="d4iCRV9yAz6YBynpbSwq-38">
          <mxGeometry y="26" width="160" height="26" as="geometry" />
        </mxCell>
        <mxCell id="d4iCRV9yAz6YBynpbSwq-40" value="" style="line;strokeWidth=1;fillColor=none;align=left;verticalAlign=middle;spacingTop=-1;spacingLeft=3;spacingRight=3;rotatable=0;labelPosition=right;points=[];portConstraint=eastwest;" vertex="1" parent="d4iCRV9yAz6YBynpbSwq-38">
          <mxGeometry y="52" width="160" height="8" as="geometry" />
        </mxCell>
        <mxCell id="d4iCRV9yAz6YBynpbSwq-41" value="+ 分享得水滴()&#xa;+ 福袋得水滴()&#xa;+ 浏览商品得水滴()&#xa;+ 拼团得水滴()&#xa;+ 邀请好友得水滴&#xa;+ 献爱心得水滴" style="text;strokeColor=none;fillColor=none;align=left;verticalAlign=top;spacingLeft=4;spacingRight=4;overflow=hidden;rotatable=0;points=[[0,0.5],[1,0.5]];portConstraint=eastwest;" vertex="1" parent="d4iCRV9yAz6YBynpbSwq-38">
          <mxGeometry y="60" width="160" height="110" as="geometry" />
        </mxCell>
        <mxCell id="d4iCRV9yAz6YBynpbSwq-42" value="Extends" style="endArrow=block;endSize=16;endFill=0;html=1;rounded=0;exitX=0;exitY=0.5;exitDx=0;exitDy=0;" edge="1" parent="1" source="d4iCRV9yAz6YBynpbSwq-27">
          <mxGeometry width="160" relative="1" as="geometry">
            <mxPoint x="550" y="180" as="sourcePoint" />
            <mxPoint x="630" y="340" as="targetPoint" />
          </mxGeometry>
        </mxCell>
        <mxCell id="d4iCRV9yAz6YBynpbSwq-43" value="Extends" style="endArrow=block;endSize=16;endFill=0;html=1;rounded=0;exitX=0;exitY=0.5;exitDx=0;exitDy=0;" edge="1" parent="1" source="d4iCRV9yAz6YBynpbSwq-31">
          <mxGeometry width="160" relative="1" as="geometry">
            <mxPoint x="730" y="350" as="sourcePoint" />
            <mxPoint x="640" y="370" as="targetPoint" />
          </mxGeometry>
        </mxCell>
        <mxCell id="d4iCRV9yAz6YBynpbSwq-44" value="Extends" style="endArrow=block;endSize=16;endFill=0;html=1;rounded=0;entryX=1.071;entryY=0.405;entryDx=0;entryDy=0;entryPerimeter=0;exitX=0;exitY=0.25;exitDx=0;exitDy=0;" edge="1" parent="1" source="d4iCRV9yAz6YBynpbSwq-34" target="d4iCRV9yAz6YBynpbSwq-21">
          <mxGeometry width="160" relative="1" as="geometry">
            <mxPoint x="730" y="510" as="sourcePoint" />
            <mxPoint x="650" y="380" as="targetPoint" />
          </mxGeometry>
        </mxCell>
        <mxCell id="d4iCRV9yAz6YBynpbSwq-45" value="Extends" style="endArrow=block;endSize=16;endFill=0;html=1;rounded=0;entryX=0.736;entryY=1.02;entryDx=0;entryDy=0;entryPerimeter=0;exitX=-0.01;exitY=0.141;exitDx=0;exitDy=0;exitPerimeter=0;" edge="1" parent="1" source="d4iCRV9yAz6YBynpbSwq-38" target="d4iCRV9yAz6YBynpbSwq-21">
          <mxGeometry width="160" relative="1" as="geometry">
            <mxPoint x="720" y="670" as="sourcePoint" />
            <mxPoint x="649.94" y="420.02" as="targetPoint" />
          </mxGeometry>
        </mxCell>
        <mxCell id="d4iCRV9yAz6YBynpbSwq-48" value="Extends" style="endArrow=block;endSize=16;endFill=0;html=1;rounded=0;exitX=-0.023;exitY=0.237;exitDx=0;exitDy=0;exitPerimeter=0;entryX=1;entryY=0.5;entryDx=0;entryDy=0;" edge="1" parent="1" source="d4iCRV9yAz6YBynpbSwq-21" target="d4iCRV9yAz6YBynpbSwq-6">
          <mxGeometry width="160" relative="1" as="geometry">
            <mxPoint x="330" y="404.40999999999997" as="sourcePoint" />
            <mxPoint x="380" y="450" as="targetPoint" />
          </mxGeometry>
        </mxCell>
        <mxCell id="d4iCRV9yAz6YBynpbSwq-49" value="" style="endArrow=classic;html=1;rounded=0;entryX=1.034;entryY=0.98;entryDx=0;entryDy=0;entryPerimeter=0;exitX=-0.021;exitY=0.002;exitDx=0;exitDy=0;exitPerimeter=0;" edge="1" parent="1" source="d4iCRV9yAz6YBynpbSwq-14" target="d4iCRV9yAz6YBynpbSwq-27">
          <mxGeometry width="50" height="50" relative="1" as="geometry">
            <mxPoint x="960" y="290" as="sourcePoint" />
            <mxPoint x="1010" y="240" as="targetPoint" />
          </mxGeometry>
        </mxCell>
        <mxCell id="d4iCRV9yAz6YBynpbSwq-50" value="" style="endArrow=classic;html=1;rounded=0;" edge="1" parent="1">
          <mxGeometry width="50" height="50" relative="1" as="geometry">
            <mxPoint x="1010" y="360" as="sourcePoint" />
            <mxPoint x="910" y="360" as="targetPoint" />
          </mxGeometry>
        </mxCell>
        <mxCell id="d4iCRV9yAz6YBynpbSwq-51" value="" style="endArrow=classic;html=1;rounded=0;" edge="1" parent="1" source="d4iCRV9yAz6YBynpbSwq-16">
          <mxGeometry width="50" height="50" relative="1" as="geometry">
            <mxPoint x="650" y="500" as="sourcePoint" />
            <mxPoint x="910" y="520" as="targetPoint" />
          </mxGeometry>
        </mxCell>
        <mxCell id="d4iCRV9yAz6YBynpbSwq-52" value="" style="endArrow=classic;html=1;rounded=0;entryX=0.999;entryY=0.108;entryDx=0;entryDy=0;entryPerimeter=0;exitX=0.263;exitY=1.038;exitDx=0;exitDy=0;exitPerimeter=0;" edge="1" parent="1" source="d4iCRV9yAz6YBynpbSwq-16" target="d4iCRV9yAz6YBynpbSwq-38">
          <mxGeometry width="50" height="50" relative="1" as="geometry">
            <mxPoint x="1070" y="460" as="sourcePoint" />
            <mxPoint x="700" y="450" as="targetPoint" />
          </mxGeometry>
        </mxCell>
        <mxCell id="d4iCRV9yAz6YBynpbSwq-53" value="UI界面" style="swimlane;fontStyle=1;align=center;verticalAlign=top;childLayout=stackLayout;horizontal=1;startSize=26;horizontalStack=0;resizeParent=1;resizeParentMax=0;resizeLast=0;collapsible=1;marginBottom=0;" vertex="1" parent="1">
          <mxGeometry x="1000" y="640" width="160" height="110" as="geometry" />
        </mxCell>
        <mxCell id="d4iCRV9yAz6YBynpbSwq-54" value="+ 画面" style="text;strokeColor=none;fillColor=none;align=left;verticalAlign=top;spacingLeft=4;spacingRight=4;overflow=hidden;rotatable=0;points=[[0,0.5],[1,0.5]];portConstraint=eastwest;" vertex="1" parent="d4iCRV9yAz6YBynpbSwq-53">
          <mxGeometry y="26" width="160" height="26" as="geometry" />
        </mxCell>
        <mxCell id="d4iCRV9yAz6YBynpbSwq-55" value="" style="line;strokeWidth=1;fillColor=none;align=left;verticalAlign=middle;spacingTop=-1;spacingLeft=3;spacingRight=3;rotatable=0;labelPosition=right;points=[];portConstraint=eastwest;" vertex="1" parent="d4iCRV9yAz6YBynpbSwq-53">
          <mxGeometry y="52" width="160" height="8" as="geometry" />
        </mxCell>
        <mxCell id="d4iCRV9yAz6YBynpbSwq-56" value="+ 显示界面()&#xa;+ 接收信息()&#xa;" style="text;strokeColor=none;fillColor=none;align=left;verticalAlign=top;spacingLeft=4;spacingRight=4;overflow=hidden;rotatable=0;points=[[0,0.5],[1,0.5]];portConstraint=eastwest;" vertex="1" parent="d4iCRV9yAz6YBynpbSwq-53">
          <mxGeometry y="60" width="160" height="50" as="geometry" />
        </mxCell>
        <mxCell id="d4iCRV9yAz6YBynpbSwq-57" value="" style="endArrow=classic;html=1;rounded=0;entryX=0.423;entryY=-0.043;entryDx=0;entryDy=0;entryPerimeter=0;exitX=0.521;exitY=1.021;exitDx=0;exitDy=0;exitPerimeter=0;" edge="1" parent="1" source="d4iCRV9yAz6YBynpbSwq-16" target="d4iCRV9yAz6YBynpbSwq-53">
          <mxGeometry width="50" height="50" relative="1" as="geometry">
            <mxPoint x="1070" y="530" as="sourcePoint" />
            <mxPoint x="1120" y="480" as="targetPoint" />
          </mxGeometry>
        </mxCell>
        <mxCell id="d4iCRV9yAz6YBynpbSwq-59" style="edgeStyle=orthogonalEdgeStyle;rounded=0;orthogonalLoop=1;jettySize=auto;html=1;entryX=0.5;entryY=0;entryDx=0;entryDy=0;exitX=1;exitY=0.5;exitDx=0;exitDy=0;exitPerimeter=0;" edge="1" parent="1" source="d4iCRV9yAz6YBynpbSwq-58" target="d4iCRV9yAz6YBynpbSwq-13">
          <mxGeometry relative="1" as="geometry">
            <mxPoint x="1100" y="140" as="sourcePoint" />
          </mxGeometry>
        </mxCell>
        <mxCell id="d4iCRV9yAz6YBynpbSwq-58" value="监听接口" style="shape=requiredInterface;html=1;verticalLabelPosition=bottom;sketch=0;direction=south;" vertex="1" parent="1">
          <mxGeometry x="1095" y="145" width="20" height="10" as="geometry" />
        </mxCell>
        <mxCell id="d4iCRV9yAz6YBynpbSwq-60" value="监听" style="swimlane;fontStyle=1;align=center;verticalAlign=top;childLayout=stackLayout;horizontal=1;startSize=26;horizontalStack=0;resizeParent=1;resizeParentMax=0;resizeLast=0;collapsible=1;marginBottom=0;" vertex="1" parent="1">
          <mxGeometry x="1280" y="59" width="160" height="78" as="geometry" />
        </mxCell>
        <mxCell id="d4iCRV9yAz6YBynpbSwq-61" value="+ 发送信息()&#xa;+ 接收信息()" style="text;strokeColor=none;fillColor=none;align=left;verticalAlign=top;spacingLeft=4;spacingRight=4;overflow=hidden;rotatable=0;points=[[0,0.5],[1,0.5]];portConstraint=eastwest;" vertex="1" parent="d4iCRV9yAz6YBynpbSwq-60">
          <mxGeometry y="26" width="160" height="44" as="geometry" />
        </mxCell>
        <mxCell id="d4iCRV9yAz6YBynpbSwq-62" value="" style="line;strokeWidth=1;fillColor=none;align=left;verticalAlign=middle;spacingTop=-1;spacingLeft=3;spacingRight=3;rotatable=0;labelPosition=right;points=[];portConstraint=eastwest;" vertex="1" parent="d4iCRV9yAz6YBynpbSwq-60">
          <mxGeometry y="70" width="160" height="8" as="geometry" />
        </mxCell>
        <mxCell id="d4iCRV9yAz6YBynpbSwq-67" style="edgeStyle=orthogonalEdgeStyle;rounded=0;orthogonalLoop=1;jettySize=auto;html=1;entryX=-0.008;entryY=-0.107;entryDx=0;entryDy=0;entryPerimeter=0;" edge="1" parent="1" source="d4iCRV9yAz6YBynpbSwq-66" target="d4iCRV9yAz6YBynpbSwq-61">
          <mxGeometry relative="1" as="geometry" />
        </mxCell>
        <mxCell id="d4iCRV9yAz6YBynpbSwq-66" value="监听接口" style="shape=requiredInterface;html=1;verticalLabelPosition=bottom;sketch=0;" vertex="1" parent="1">
          <mxGeometry x="1150" y="70" width="10" height="20" as="geometry" />
        </mxCell>
      </root>
    </mxGraphModel>
  </diagram>
</mxfile>
